<?xml version="1.0" encoding="utf-8"?><!-- Uploaded to: SVG Repo, www.svgrepo.com, Generator: SVG Repo Mixer Tools -->
<svg fill="#000000" width="800px" height="800px" viewBox="0 0 24 24" id="ambulance-2" data-name="Line Color" xmlns="http://www.w3.org/2000/svg" class="icon line-color"><path id="secondary" d="M14,4h1a0,0,0,0,1,0,0V6a0,0,0,0,1,0,0H14a1,1,0,0,1-1-1V5a1,1,0,0,1,1-1Z" transform="translate(19 -9) rotate(90)" style="fill: none; stroke: rgb(44, 169, 188); stroke-linecap: round; stroke-linejoin: round; stroke-width: 2;"></path><path id="primary" d="M13,6v4a1,1,0,0,0,1,1h6.78" style="fill: none; stroke: rgb(0, 0, 0); stroke-linecap: round; stroke-linejoin: round; stroke-width: 2;"></path><path id="primary-2" data-name="primary" d="M4.89,18H4a1,1,0,0,1-1-1V7A1,1,0,0,1,4,6H16.52a1,1,0,0,1,.78.38l3.48,4.35a1,1,0,0,1,.22.62V17a1,1,0,0,1-1,1h-.88" style="fill: none; stroke: rgb(0, 0, 0); stroke-linecap: round; stroke-linejoin: round; stroke-width: 2;"></path><line id="primary-3" data-name="primary" x1="14.89" y1="18" x2="9.1" y2="18" style="fill: none; stroke: rgb(0, 0, 0); stroke-linecap: round; stroke-linejoin: round; stroke-width: 2;"></line><path id="secondary-2" data-name="secondary" d="M7,16a2,2,0,1,0,2,2A2,2,0,0,0,7,16Zm10,0a2,2,0,1,0,2,2A2,2,0,0,0,17,16Z" style="fill: none; stroke: rgb(44, 169, 188); stroke-linecap: round; stroke-linejoin: round; stroke-width: 2;"></path></svg>